<svg xmlns="http://www.w3.org/2000/svg" xmlns:xlink="http://www.w3.org/1999/xlink" width="478" zoomAndPan="magnify" viewBox="0 0 358.5 42.75" height="57" preserveAspectRatio="xMidYMid meet" version="1.0"><defs><g/><clipPath id="733d5812de"><path d="M 273 15 L 293 15 L 293 42.5 L 273 42.5 Z M 273 15 " clip-rule="nonzero"/></clipPath><clipPath id="0651e0db29"><path d="M 337 15 L 357.210938 15 L 357.210938 42.5 L 337 42.5 Z M 337 15 " clip-rule="nonzero"/></clipPath></defs><g fill="#000000" fill-opacity="1"><g transform="translate(0.817501, 34.663039)"><g><path d="M 24.484375 0 L 19.171875 0 L 17.25 -5.875 L 7.484375 -5.875 L 5.5625 0 L 0.390625 0 L 9.203125 -25.515625 L 15.671875 -25.515625 Z M 12.125 -20.1875 L 8.84375 -10.125 L 15.859375 -10.125 L 12.5625 -20.1875 Z M 12.125 -20.1875 "/></g></g></g><g fill="#000000" fill-opacity="1"><g transform="translate(25.676348, 34.663039)"><g><path d="M 13.453125 0.359375 C 10.992188 0.359375 9.164062 -0.554688 7.96875 -2.390625 L 7.609375 -2.328125 L 7.609375 0 L 2.78125 0 L 2.78125 -26.96875 L 7.609375 -26.96875 L 7.609375 -16.984375 L 7.96875 -16.90625 C 8.632812 -17.820312 9.414062 -18.5 10.3125 -18.9375 C 11.21875 -19.382812 12.300781 -19.609375 13.5625 -19.609375 C 15.113281 -19.609375 16.472656 -19.238281 17.640625 -18.5 C 18.804688 -17.769531 19.710938 -16.65625 20.359375 -15.15625 C 21.015625 -13.664062 21.34375 -11.816406 21.34375 -9.609375 C 21.34375 -7.421875 21.003906 -5.578125 20.328125 -4.078125 C 19.648438 -2.585938 18.71875 -1.472656 17.53125 -0.734375 C 16.34375 -0.00390625 14.984375 0.359375 13.453125 0.359375 Z M 11.984375 -3.734375 C 13.398438 -3.734375 14.476562 -4.207031 15.21875 -5.15625 C 15.96875 -6.101562 16.34375 -7.585938 16.34375 -9.609375 C 16.34375 -11.648438 15.96875 -13.144531 15.21875 -14.09375 C 14.476562 -15.039062 13.398438 -15.515625 11.984375 -15.515625 C 10.628906 -15.515625 9.550781 -15.023438 8.75 -14.046875 C 7.957031 -13.066406 7.5625 -11.585938 7.5625 -9.609375 C 7.5625 -7.628906 7.957031 -6.15625 8.75 -5.1875 C 9.550781 -4.21875 10.628906 -3.734375 11.984375 -3.734375 Z M 11.984375 -3.734375 "/></g></g></g><g fill="#000000" fill-opacity="1"><g transform="translate(48.720935, 34.663039)"><g><path d="M 11.1875 0.359375 C 9.300781 0.359375 7.644531 -0.0234375 6.21875 -0.796875 C 4.789062 -1.566406 3.6875 -2.695312 2.90625 -4.1875 C 2.125 -5.6875 1.734375 -7.492188 1.734375 -9.609375 C 1.734375 -11.734375 2.125 -13.546875 2.90625 -15.046875 C 3.6875 -16.546875 4.789062 -17.679688 6.21875 -18.453125 C 7.644531 -19.222656 9.300781 -19.609375 11.1875 -19.609375 C 13.070312 -19.609375 14.722656 -19.222656 16.140625 -18.453125 C 17.566406 -17.679688 18.675781 -16.546875 19.46875 -15.046875 C 20.257812 -13.546875 20.65625 -11.734375 20.65625 -9.609375 C 20.65625 -7.492188 20.257812 -5.6875 19.46875 -4.1875 C 18.675781 -2.695312 17.566406 -1.566406 16.140625 -0.796875 C 14.722656 -0.0234375 13.070312 0.359375 11.1875 0.359375 Z M 11.1875 -3.734375 C 14.175781 -3.734375 15.671875 -5.691406 15.671875 -9.609375 C 15.671875 -11.648438 15.285156 -13.144531 14.515625 -14.09375 C 13.742188 -15.039062 12.632812 -15.515625 11.1875 -15.515625 C 8.195312 -15.515625 6.703125 -13.546875 6.703125 -9.609375 C 6.703125 -5.691406 8.195312 -3.734375 11.1875 -3.734375 Z M 11.1875 -3.734375 "/></g></g></g><g fill="#000000" fill-opacity="1"><g transform="translate(71.085175, 34.663039)"><g><path d="M 8.8125 0.359375 C 6.644531 0.359375 5.046875 -0.226562 4.015625 -1.40625 C 2.992188 -2.582031 2.484375 -4.273438 2.484375 -6.484375 L 2.484375 -19.25 L 7.3125 -19.25 L 7.3125 -7.09375 C 7.3125 -5.925781 7.5625 -5.070312 8.0625 -4.53125 C 8.570312 -3.988281 9.359375 -3.71875 10.421875 -3.71875 C 11.753906 -3.71875 12.789062 -4.15625 13.53125 -5.03125 C 14.28125 -5.90625 14.65625 -7.285156 14.65625 -9.171875 L 14.65625 -19.25 L 19.484375 -19.25 L 19.484375 0 L 14.84375 0 L 14.84375 -2.828125 L 14.484375 -2.90625 C 13.867188 -1.800781 13.113281 -0.976562 12.21875 -0.4375 C 11.332031 0.09375 10.195312 0.359375 8.8125 0.359375 Z M 8.8125 0.359375 "/></g></g></g><g fill="#000000" fill-opacity="1"><g transform="translate(93.344745, 34.663039)"><g><path d="M 13.28125 -4.59375 L 14.53125 -1.015625 C 14.007812 -0.578125 13.351562 -0.238281 12.5625 0 C 11.769531 0.238281 10.875 0.359375 9.875 0.359375 C 7.789062 0.359375 6.207031 -0.203125 5.125 -1.328125 C 4.039062 -2.460938 3.5 -4.113281 3.5 -6.28125 L 3.5 -15.421875 L 0.578125 -15.421875 L 0.578125 -19.265625 L 3.5 -19.265625 L 3.5 -23.015625 L 8.34375 -23.796875 L 8.34375 -19.265625 L 13.796875 -19.265625 L 13.796875 -15.421875 L 8.34375 -15.421875 L 8.34375 -6.625 C 8.34375 -5.675781 8.539062 -4.984375 8.9375 -4.546875 C 9.332031 -4.109375 9.90625 -3.890625 10.65625 -3.890625 C 11.519531 -3.890625 12.269531 -4.125 12.90625 -4.59375 Z M 13.28125 -4.59375 "/></g></g></g><g fill="#000000" fill-opacity="1"><g transform="translate(108.294943, 34.663039)"><g/></g></g><g fill="#000000" fill-opacity="1"><g transform="translate(116.720783, 34.663039)"><g><path d="M 13.90625 0.359375 C 11.570312 0.359375 9.507812 -0.113281 7.71875 -1.0625 C 5.9375 -2.019531 4.535156 -3.476562 3.515625 -5.4375 C 2.503906 -7.394531 2 -9.832031 2 -12.75 C 2 -15.675781 2.503906 -18.117188 3.515625 -20.078125 C 4.535156 -22.035156 5.9375 -23.488281 7.71875 -24.4375 C 9.507812 -25.394531 11.570312 -25.875 13.90625 -25.875 C 16.238281 -25.875 18.296875 -25.398438 20.078125 -24.453125 C 21.859375 -23.503906 23.25 -22.046875 24.25 -20.078125 C 25.257812 -18.117188 25.765625 -15.675781 25.765625 -12.75 C 25.765625 -9.832031 25.257812 -7.390625 24.25 -5.421875 C 23.25 -3.460938 21.859375 -2.007812 20.078125 -1.0625 C 18.296875 -0.113281 16.238281 0.359375 13.90625 0.359375 Z M 13.90625 -4.015625 C 16.070312 -4.015625 17.722656 -4.707031 18.859375 -6.09375 C 20.003906 -7.488281 20.578125 -9.707031 20.578125 -12.75 C 20.578125 -15.800781 20.003906 -18.023438 18.859375 -19.421875 C 17.722656 -20.816406 16.070312 -21.515625 13.90625 -21.515625 C 11.726562 -21.515625 10.066406 -20.816406 8.921875 -19.421875 C 7.773438 -18.023438 7.203125 -15.800781 7.203125 -12.75 C 7.203125 -9.707031 7.773438 -7.488281 8.921875 -6.09375 C 10.066406 -4.707031 11.726562 -4.015625 13.90625 -4.015625 Z M 13.90625 -4.015625 "/></g></g></g><g fill="#000000" fill-opacity="1"><g transform="translate(144.510357, 34.663039)"><g><path d="M 8.8125 0.359375 C 6.644531 0.359375 5.046875 -0.226562 4.015625 -1.40625 C 2.992188 -2.582031 2.484375 -4.273438 2.484375 -6.484375 L 2.484375 -19.25 L 7.3125 -19.25 L 7.3125 -7.09375 C 7.3125 -5.925781 7.5625 -5.070312 8.0625 -4.53125 C 8.570312 -3.988281 9.359375 -3.71875 10.421875 -3.71875 C 11.753906 -3.71875 12.789062 -4.15625 13.53125 -5.03125 C 14.28125 -5.90625 14.65625 -7.285156 14.65625 -9.171875 L 14.65625 -19.25 L 19.484375 -19.25 L 19.484375 0 L 14.84375 0 L 14.84375 -2.828125 L 14.484375 -2.90625 C 13.867188 -1.800781 13.113281 -0.976562 12.21875 -0.4375 C 11.332031 0.09375 10.195312 0.359375 8.8125 0.359375 Z M 8.8125 0.359375 "/></g></g></g><g fill="#000000" fill-opacity="1"><g transform="translate(166.769928, 34.663039)"><g><path d="M 2.78125 0 L 2.78125 -19.25 L 7.46875 -19.25 L 7.46875 -16.390625 L 7.828125 -16.3125 C 8.296875 -17.382812 8.90625 -18.171875 9.65625 -18.671875 C 10.414062 -19.171875 11.335938 -19.421875 12.421875 -19.421875 C 13.515625 -19.421875 14.347656 -19.234375 14.921875 -18.859375 L 14.09375 -14.6875 L 13.734375 -14.625 C 13.421875 -14.75 13.117188 -14.835938 12.828125 -14.890625 C 12.535156 -14.953125 12.179688 -14.984375 11.765625 -14.984375 C 10.410156 -14.984375 9.378906 -14.507812 8.671875 -13.5625 C 7.960938 -12.613281 7.609375 -11.09375 7.609375 -9 L 7.609375 0 Z M 2.78125 0 "/></g></g></g><g fill="#000000" fill-opacity="1"><g transform="translate(181.859685, 34.663039)"><g/></g></g><g fill="#000000" fill-opacity="1"><g transform="translate(190.285525, 34.663039)"><g><path d="M 13.9375 0.359375 C 11.59375 0.359375 9.523438 -0.125 7.734375 -1.09375 C 5.941406 -2.070312 4.535156 -3.539062 3.515625 -5.5 C 2.503906 -7.457031 2 -9.875 2 -12.75 C 2 -15.625 2.503906 -18.039062 3.515625 -20 C 4.535156 -21.957031 5.941406 -23.425781 7.734375 -24.40625 C 9.523438 -25.382812 11.59375 -25.875 13.9375 -25.875 C 16.394531 -25.875 18.476562 -25.394531 20.1875 -24.4375 C 21.90625 -23.476562 23.132812 -22.015625 23.875 -20.046875 L 20.1875 -17.796875 L 19.75 -17.8125 C 19.207031 -19.132812 18.46875 -20.082031 17.53125 -20.65625 C 16.59375 -21.238281 15.394531 -21.53125 13.9375 -21.53125 C 11.820312 -21.53125 10.171875 -20.828125 8.984375 -19.421875 C 7.796875 -18.023438 7.203125 -15.800781 7.203125 -12.75 C 7.203125 -9.71875 7.796875 -7.5 8.984375 -6.09375 C 10.171875 -4.695312 11.820312 -4 13.9375 -4 C 17.257812 -4 19.289062 -5.609375 20.03125 -8.828125 L 20.46875 -8.828125 L 24.1875 -6.890625 C 23.488281 -4.472656 22.296875 -2.660156 20.609375 -1.453125 C 18.921875 -0.242188 16.695312 0.359375 13.9375 0.359375 Z M 13.9375 0.359375 "/></g></g></g><g fill="#000000" fill-opacity="1"><g transform="translate(215.301363, 34.663039)"><g><path d="M 11.1875 0.359375 C 9.300781 0.359375 7.644531 -0.0234375 6.21875 -0.796875 C 4.789062 -1.566406 3.6875 -2.695312 2.90625 -4.1875 C 2.125 -5.6875 1.734375 -7.492188 1.734375 -9.609375 C 1.734375 -11.734375 2.125 -13.546875 2.90625 -15.046875 C 3.6875 -16.546875 4.789062 -17.679688 6.21875 -18.453125 C 7.644531 -19.222656 9.300781 -19.609375 11.1875 -19.609375 C 13.070312 -19.609375 14.722656 -19.222656 16.140625 -18.453125 C 17.566406 -17.679688 18.675781 -16.546875 19.46875 -15.046875 C 20.257812 -13.546875 20.65625 -11.734375 20.65625 -9.609375 C 20.65625 -7.492188 20.257812 -5.6875 19.46875 -4.1875 C 18.675781 -2.695312 17.566406 -1.566406 16.140625 -0.796875 C 14.722656 -0.0234375 13.070312 0.359375 11.1875 0.359375 Z M 11.1875 -3.734375 C 14.175781 -3.734375 15.671875 -5.691406 15.671875 -9.609375 C 15.671875 -11.648438 15.285156 -13.144531 14.515625 -14.09375 C 13.742188 -15.039062 12.632812 -15.515625 11.1875 -15.515625 C 8.195312 -15.515625 6.703125 -13.546875 6.703125 -9.609375 C 6.703125 -5.691406 8.195312 -3.734375 11.1875 -3.734375 Z M 11.1875 -3.734375 "/></g></g></g><g fill="#000000" fill-opacity="1"><g transform="translate(237.665603, 34.663039)"><g><path d="M 2.78125 0 L 2.78125 -19.25 L 7.421875 -19.25 L 7.421875 -16.65625 L 7.78125 -16.59375 C 8.40625 -17.625 9.140625 -18.382812 9.984375 -18.875 C 10.828125 -19.363281 11.90625 -19.609375 13.21875 -19.609375 C 14.675781 -19.609375 15.847656 -19.320312 16.734375 -18.75 C 17.617188 -18.175781 18.265625 -17.335938 18.671875 -16.234375 L 19.03125 -16.234375 C 19.625 -17.378906 20.390625 -18.226562 21.328125 -18.78125 C 22.265625 -19.332031 23.429688 -19.609375 24.828125 -19.609375 C 28.816406 -19.609375 30.8125 -17.390625 30.8125 -12.953125 L 30.8125 0 L 25.984375 0 L 25.984375 -12.34375 C 25.984375 -13.46875 25.757812 -14.28125 25.3125 -14.78125 C 24.875 -15.28125 24.164062 -15.53125 23.1875 -15.53125 C 20.53125 -15.53125 19.203125 -13.753906 19.203125 -10.203125 L 19.203125 0 L 14.375 0 L 14.375 -12.34375 C 14.375 -13.46875 14.148438 -14.28125 13.703125 -14.78125 C 13.253906 -15.28125 12.539062 -15.53125 11.5625 -15.53125 C 10.320312 -15.53125 9.351562 -15.113281 8.65625 -14.28125 C 7.957031 -13.445312 7.609375 -12.125 7.609375 -10.3125 L 7.609375 0 Z M 2.78125 0 "/></g></g></g><g clip-path="url(#733d5812de)"><g fill="#000000" fill-opacity="1"><g transform="translate(270.950291, 34.663039)"><g><path d="M 2.78125 7.796875 L 2.78125 -19.25 L 7.609375 -19.25 L 7.609375 -16.734375 L 7.96875 -16.65625 C 8.539062 -17.632812 9.300781 -18.367188 10.25 -18.859375 C 11.207031 -19.359375 12.328125 -19.609375 13.609375 -19.609375 C 15.160156 -19.609375 16.515625 -19.238281 17.671875 -18.5 C 18.828125 -17.769531 19.726562 -16.65625 20.375 -15.15625 C 21.019531 -13.664062 21.34375 -11.816406 21.34375 -9.609375 C 21.34375 -7.410156 21 -5.566406 20.3125 -4.078125 C 19.632812 -2.585938 18.691406 -1.472656 17.484375 -0.734375 C 16.273438 -0.00390625 14.878906 0.359375 13.296875 0.359375 C 12.097656 0.359375 11.0625 0.160156 10.1875 -0.234375 C 9.3125 -0.640625 8.570312 -1.265625 7.96875 -2.109375 L 7.609375 -2.046875 L 7.609375 7.796875 Z M 11.953125 -3.734375 C 13.390625 -3.734375 14.476562 -4.203125 15.21875 -5.140625 C 15.96875 -6.085938 16.34375 -7.578125 16.34375 -9.609375 C 16.34375 -11.648438 15.96875 -13.144531 15.21875 -14.09375 C 14.476562 -15.039062 13.390625 -15.515625 11.953125 -15.515625 C 10.597656 -15.515625 9.523438 -15.023438 8.734375 -14.046875 C 7.953125 -13.066406 7.5625 -11.585938 7.5625 -9.609375 C 7.5625 -7.648438 7.953125 -6.179688 8.734375 -5.203125 C 9.523438 -4.222656 10.597656 -3.734375 11.953125 -3.734375 Z M 11.953125 -3.734375 "/></g></g></g></g><g fill="#000000" fill-opacity="1"><g transform="translate(293.994866, 34.663039)"><g><path d="M 7.5 0.359375 C 6.269531 0.359375 5.203125 0.132812 4.296875 -0.3125 C 3.390625 -0.769531 2.691406 -1.4375 2.203125 -2.3125 C 1.710938 -3.1875 1.46875 -4.242188 1.46875 -5.484375 C 1.46875 -6.617188 1.710938 -7.570312 2.203125 -8.34375 C 2.691406 -9.125 3.445312 -9.757812 4.46875 -10.25 C 5.488281 -10.75 6.828125 -11.128906 8.484375 -11.390625 C 9.628906 -11.578125 10.5 -11.78125 11.09375 -12 C 11.695312 -12.226562 12.101562 -12.476562 12.3125 -12.75 C 12.519531 -13.03125 12.625 -13.382812 12.625 -13.8125 C 12.625 -14.4375 12.410156 -14.910156 11.984375 -15.234375 C 11.554688 -15.554688 10.84375 -15.71875 9.84375 -15.71875 C 8.769531 -15.71875 7.75 -15.476562 6.78125 -15 C 5.820312 -14.53125 4.988281 -13.90625 4.28125 -13.125 L 3.921875 -13.125 L 1.90625 -16.171875 C 2.882812 -17.253906 4.078125 -18.097656 5.484375 -18.703125 C 6.890625 -19.304688 8.421875 -19.609375 10.078125 -19.609375 C 12.628906 -19.609375 14.472656 -19.066406 15.609375 -17.984375 C 16.753906 -16.898438 17.328125 -15.367188 17.328125 -13.390625 L 17.328125 -5.03125 C 17.328125 -4.164062 17.703125 -3.734375 18.453125 -3.734375 C 18.742188 -3.734375 19.03125 -3.785156 19.3125 -3.890625 L 19.5625 -3.828125 L 19.90625 -0.453125 C 19.632812 -0.273438 19.257812 -0.128906 18.78125 -0.015625 C 18.3125 0.0859375 17.789062 0.140625 17.21875 0.140625 C 16.070312 0.140625 15.175781 -0.078125 14.53125 -0.515625 C 13.882812 -0.960938 13.421875 -1.65625 13.140625 -2.59375 L 12.765625 -2.640625 C 11.828125 -0.640625 10.070312 0.359375 7.5 0.359375 Z M 9.03125 -3.25 C 10.15625 -3.25 11.050781 -3.625 11.71875 -4.375 C 12.382812 -5.125 12.71875 -6.164062 12.71875 -7.5 L 12.71875 -9.453125 L 12.390625 -9.53125 C 12.097656 -9.289062 11.710938 -9.09375 11.234375 -8.9375 C 10.765625 -8.78125 10.09375 -8.628906 9.21875 -8.484375 C 8.164062 -8.304688 7.410156 -8.003906 6.953125 -7.578125 C 6.492188 -7.148438 6.265625 -6.550781 6.265625 -5.78125 C 6.265625 -4.945312 6.507812 -4.316406 7 -3.890625 C 7.488281 -3.460938 8.164062 -3.25 9.03125 -3.25 Z M 9.03125 -3.25 "/></g></g></g><g fill="#000000" fill-opacity="1"><g transform="translate(314.283162, 34.663039)"><g><path d="M 2.78125 0 L 2.78125 -19.25 L 7.421875 -19.25 L 7.421875 -16.421875 L 7.78125 -16.328125 C 8.976562 -18.515625 10.921875 -19.609375 13.609375 -19.609375 C 15.828125 -19.609375 17.457031 -19.003906 18.5 -17.796875 C 19.539062 -16.585938 20.0625 -14.828125 20.0625 -12.515625 L 20.0625 0 L 15.234375 0 L 15.234375 -11.921875 C 15.234375 -13.203125 14.976562 -14.125 14.46875 -14.6875 C 13.957031 -15.25 13.132812 -15.53125 12 -15.53125 C 10.613281 -15.53125 9.535156 -15.082031 8.765625 -14.1875 C 7.992188 -13.289062 7.609375 -11.882812 7.609375 -9.96875 L 7.609375 0 Z M 2.78125 0 "/></g></g></g><g clip-path="url(#0651e0db29)"><g fill="#000000" fill-opacity="1"><g transform="translate(336.82185, 34.663039)"><g><path d="M 4.25 8.171875 C 3.425781 8.171875 2.679688 8.101562 2.015625 7.96875 C 1.347656 7.84375 0.804688 7.675781 0.390625 7.46875 L 1.15625 3.5625 L 1.46875 3.453125 C 1.757812 3.609375 2.117188 3.726562 2.546875 3.8125 C 2.972656 3.90625 3.414062 3.953125 3.875 3.953125 C 4.65625 3.953125 5.300781 3.847656 5.8125 3.640625 C 6.332031 3.441406 6.769531 3.109375 7.125 2.640625 C 7.488281 2.171875 7.8125 1.519531 8.09375 0.6875 L 0.421875 -19.25 L 5.484375 -19.25 L 10.265625 -5.859375 L 10.671875 -5.859375 L 15.34375 -19.25 L 20.25 -19.25 L 12.53125 1.203125 C 11.914062 2.859375 11.238281 4.1875 10.5 5.1875 C 9.757812 6.195312 8.882812 6.945312 7.875 7.4375 C 6.875 7.925781 5.664062 8.171875 4.25 8.171875 Z M 4.25 8.171875 "/></g></g></g></g></svg>