<svg xmlns="http://www.w3.org/2000/svg" xmlns:xlink="http://www.w3.org/1999/xlink" width="168" zoomAndPan="magnify" viewBox="0 0 126 44.999999" height="60" preserveAspectRatio="xMidYMid meet" version="1.0"><defs><g/><clipPath id="c2ea010fb4"><path d="M 22.285156 0 L 103.714844 0 C 109.625 0 115.292969 2.347656 119.472656 6.527344 C 123.652344 10.707031 126 16.375 126 22.285156 C 126 28.199219 123.652344 33.867188 119.472656 38.046875 C 115.292969 42.226562 109.625 44.574219 103.714844 44.574219 L 22.285156 44.574219 C 16.375 44.574219 10.707031 42.226562 6.527344 38.046875 C 2.347656 33.867188 0 28.199219 0 22.285156 C 0 16.375 2.347656 10.707031 6.527344 6.527344 C 10.707031 2.347656 16.375 0 22.285156 0 " clip-rule="nonzero"/></clipPath><clipPath id="2d2311043f"><path d="M 0 0 L 126 0 L 126 44.664062 L 0 44.664062 Z M 0 0 " clip-rule="nonzero"/></clipPath><clipPath id="3d9394381a"><path d="M 22.289062 0 L 103.726562 0 C 109.636719 0 115.308594 2.351562 119.488281 6.539062 C 123.667969 10.730469 126.015625 16.410156 126.015625 22.332031 C 126.015625 28.253906 123.667969 33.933594 119.488281 38.125 C 115.308594 42.3125 109.636719 44.664062 103.726562 44.664062 L 22.289062 44.664062 C 16.378906 44.664062 10.707031 42.3125 6.527344 38.125 C 2.347656 33.933594 0 28.253906 0 22.332031 C 0 16.410156 2.347656 10.730469 6.527344 6.539062 C 10.707031 2.351562 16.378906 0 22.289062 0 " clip-rule="nonzero"/></clipPath></defs><rect x="-12.6" width="151.2" fill="#ffffff" y="-4.5" height="53.999999" fill-opacity="1"/><rect x="-12.6" width="151.2" fill="#ffffff" y="-4.5" height="53.999999" fill-opacity="1"/><rect x="-12.6" width="151.2" fill="#ffffff" y="-4.5" height="53.999999" fill-opacity="1"/><g clip-path="url(#c2ea010fb4)"><rect x="-12.6" width="151.2" fill="#000000" y="-4.5" height="53.999999" fill-opacity="1"/></g><g clip-path="url(#2d2311043f)"><g clip-path="url(#3d9394381a)"><path stroke-linecap="round" transform="matrix(0.531785, 0, 0, 0.532806, 0.000474731, -0.000000000000031776)" fill="none" stroke-linejoin="miter" d="M 41.912744 0.000000000000059638 L 195.052507 0.000000000000059638 C 206.166305 0.000000000000059638 216.832026 4.413547 224.691751 12.272888 C 232.551476 20.139559 236.966144 30.799523 236.966144 41.914038 C 236.966144 53.028553 232.551476 63.688516 224.691751 71.555188 C 216.832026 79.414528 206.166305 83.828075 195.052507 83.828075 L 41.912744 83.828075 C 30.798946 83.828075 20.133225 79.414528 12.2735 71.555188 C 4.413775 63.688516 -0.000892712 53.028553 -0.000892712 41.914038 C -0.000892712 30.799523 4.413775 20.139559 12.2735 12.272888 C 20.133225 4.413547 30.798946 0.000000000000059638 41.912744 0.000000000000059638 " stroke="#000000" stroke-width="2.821058" stroke-opacity="1" stroke-miterlimit="4"/></g></g><g fill="#ffffff" fill-opacity="1"><g transform="translate(14.367756, 29.020345)"><g><path d="M 7.492188 0.289062 C 10.863281 0.289062 12.992188 -1.351562 12.992188 -3.945312 C 12.992188 -6.164062 11.484375 -7.539062 7.558594 -8.445312 C 4.300781 -9.179688 3.148438 -10.132812 3.148438 -11.683594 C 3.148438 -13.390625 4.609375 -14.519531 7.117188 -14.519531 C 9.710938 -14.519531 11.285156 -13.28125 11.394531 -11.085938 L 12.726562 -11.085938 C 12.613281 -14.078125 10.53125 -15.808594 7.117188 -15.808594 C 3.8125 -15.808594 1.796875 -14.167969 1.796875 -11.683594 C 1.796875 -9.355469 3.414062 -8.070312 7.226562 -7.183594 C 10.351562 -6.496094 11.617188 -5.542969 11.617188 -3.925781 C 11.617188 -2.128906 10.042969 -0.996094 7.492188 -0.996094 C 4.8125 -0.996094 3.015625 -2.328125 2.882812 -4.609375 L 1.550781 -4.609375 C 1.664062 -1.617188 3.945312 0.289062 7.492188 0.289062 Z M 7.492188 0.289062 "/></g></g></g><g fill="#ffffff" fill-opacity="1"><g transform="translate(28.930448, 29.020345)"><g><path d="M 7.136719 0.289062 C 9.710938 0.289062 11.792969 -1.0625 12.679688 -3.257812 L 11.238281 -3.28125 C 10.484375 -1.796875 9 -0.929688 7.136719 -0.929688 C 4.589844 -0.929688 2.816406 -2.617188 2.59375 -5.210938 L 13.011719 -5.210938 C 13.101562 -9.089844 10.773438 -11.75 7.160156 -11.75 C 3.679688 -11.75 1.285156 -9.289062 1.285156 -5.742188 C 1.285156 -2.171875 3.65625 0.289062 7.136719 0.289062 Z M 2.59375 -6.339844 C 2.816406 -8.867188 4.609375 -10.53125 7.160156 -10.53125 C 9.664062 -10.53125 11.4375 -8.933594 11.75 -6.339844 Z M 2.59375 -6.339844 "/></g></g></g><g fill="#ffffff" fill-opacity="1"><g transform="translate(43.182823, 29.020345)"><g><path d="M 2.285156 0 L 3.570312 0 L 3.570312 -5.277344 C 3.570312 -8.757812 5.210938 -10.265625 7.671875 -10.265625 L 8.667969 -10.265625 L 8.667969 -11.460938 L 7.714844 -11.460938 C 5.585938 -11.460938 4.277344 -10.617188 3.503906 -8.890625 L 3.371094 -11.460938 L 2.285156 -11.460938 Z M 2.285156 0 "/></g></g></g><g fill="#ffffff" fill-opacity="1"><g transform="translate(52.802619, 29.020345)"><g><path d="M 5.566406 0 L 6.828125 0 L 11.949219 -11.460938 L 10.574219 -11.460938 L 8.558594 -7.027344 L 6.207031 -1.683594 L 3.835938 -7.027344 L 1.839844 -11.460938 L 0.445312 -11.460938 Z M 5.566406 0 "/></g></g></g><g fill="#ffffff" fill-opacity="1"><g transform="translate(65.215258, 29.020345)"><g><path d="M 2.285156 0 L 3.570312 0 L 3.570312 -11.460938 L 2.285156 -11.460938 Z M 1.75 -14.71875 C 1.75 -14.054688 2.21875 -13.546875 2.925781 -13.546875 C 3.636719 -13.546875 4.101562 -14.054688 4.101562 -14.71875 C 4.101562 -15.363281 3.636719 -15.875 2.925781 -15.875 C 2.21875 -15.875 1.75 -15.363281 1.75 -14.71875 Z M 1.75 -14.71875 "/></g></g></g><g fill="#ffffff" fill-opacity="1"><g transform="translate(71.066931, 29.020345)"><g><path d="M 7.136719 0.289062 C 9.953125 0.289062 12.105469 -1.332031 12.878906 -4.011719 L 11.527344 -4.011719 C 10.886719 -2.128906 9.246094 -0.953125 7.136719 -0.953125 C 4.433594 -0.953125 2.570312 -2.902344 2.570312 -5.742188 C 2.570312 -8.558594 4.433594 -10.507812 7.136719 -10.507812 C 9.113281 -10.507812 10.707031 -9.464844 11.460938 -7.648438 L 12.769531 -7.648438 C 12.105469 -10.132812 9.867188 -11.75 7.136719 -11.75 C 3.703125 -11.75 1.285156 -9.265625 1.285156 -5.742188 C 1.285156 -2.21875 3.703125 0.289062 7.136719 0.289062 Z M 7.136719 0.289062 "/></g></g></g><g fill="#ffffff" fill-opacity="1"><g transform="translate(85.164143, 29.020345)"><g><path d="M 7.136719 0.289062 C 9.710938 0.289062 11.792969 -1.0625 12.679688 -3.257812 L 11.238281 -3.28125 C 10.484375 -1.796875 9 -0.929688 7.136719 -0.929688 C 4.589844 -0.929688 2.816406 -2.617188 2.59375 -5.210938 L 13.011719 -5.210938 C 13.101562 -9.089844 10.773438 -11.75 7.160156 -11.75 C 3.679688 -11.75 1.285156 -9.289062 1.285156 -5.742188 C 1.285156 -2.171875 3.65625 0.289062 7.136719 0.289062 Z M 2.59375 -6.339844 C 2.816406 -8.867188 4.609375 -10.53125 7.160156 -10.53125 C 9.664062 -10.53125 11.4375 -8.933594 11.75 -6.339844 Z M 2.59375 -6.339844 "/></g></g></g><g fill="#ffffff" fill-opacity="1"><g transform="translate(99.416518, 29.020345)"><g><path d="M 6.230469 0.289062 C 9 0.289062 10.753906 -0.976562 10.753906 -2.902344 C 10.753906 -4.632812 9.3125 -5.785156 6.40625 -6.339844 C 3.859375 -6.828125 2.902344 -7.449219 2.902344 -8.578125 C 2.902344 -9.820312 4.058594 -10.597656 5.964844 -10.597656 C 7.957031 -10.597656 9.132812 -9.777344 9.265625 -8.269531 L 10.550781 -8.269531 C 10.375 -10.464844 8.667969 -11.75 5.964844 -11.75 C 3.28125 -11.75 1.617188 -10.550781 1.617188 -8.601562 C 1.617188 -6.851562 2.96875 -5.785156 5.964844 -5.277344 C 8.402344 -4.855469 9.488281 -4.125 9.488281 -2.925781 C 9.488281 -1.664062 8.269531 -0.886719 6.25 -0.886719 C 4.058594 -0.886719 2.792969 -1.839844 2.660156 -3.457031 L 1.398438 -3.457031 C 1.484375 -1.175781 3.324219 0.289062 6.230469 0.289062 Z M 6.230469 0.289062 "/></g></g></g><g fill="#ffffff" fill-opacity="1"><g transform="translate(111.598896, 29.020345)"><g/></g></g></svg>