<svg xmlns="http://www.w3.org/2000/svg" xmlns:xlink="http://www.w3.org/1999/xlink" width="168" zoomAndPan="magnify" viewBox="0 0 126 44.999999" height="60" preserveAspectRatio="xMidYMid meet" version="1.0"><defs><g/><clipPath id="08b099b32b"><path d="M 0 0.214844 L 126 0.214844 L 126 45 L 0 45 Z M 0 0.214844 " clip-rule="nonzero"/></clipPath><clipPath id="431e6e4a5f"><path d="M 22.285156 0.214844 L 103.714844 0.214844 C 109.625 0.214844 115.292969 2.5625 119.472656 6.742188 C 123.652344 10.921875 126 16.589844 126 22.5 C 126 28.410156 123.652344 34.078125 119.472656 38.257812 C 115.292969 42.4375 109.625 44.785156 103.714844 44.785156 L 22.285156 44.785156 C 16.375 44.785156 10.707031 42.4375 6.527344 38.257812 C 2.347656 34.078125 0 28.410156 0 22.5 C 0 16.589844 2.347656 10.921875 6.527344 6.742188 C 10.707031 2.5625 16.375 0.214844 22.285156 0.214844 " clip-rule="nonzero"/></clipPath><clipPath id="8d593e8773"><path d="M 0 0.214844 L 126 0.214844 L 126 44.878906 L 0 44.878906 Z M 0 0.214844 " clip-rule="nonzero"/></clipPath><clipPath id="3615816d6c"><path d="M 22.289062 0.214844 L 103.726562 0.214844 C 109.636719 0.214844 115.308594 2.566406 119.488281 6.753906 C 123.667969 10.941406 126.015625 16.621094 126.015625 22.546875 C 126.015625 28.46875 123.667969 34.148438 119.488281 38.335938 C 115.308594 42.523438 109.636719 44.878906 103.726562 44.878906 L 22.289062 44.878906 C 16.378906 44.878906 10.707031 42.523438 6.527344 38.335938 C 2.347656 34.148438 0 28.46875 0 22.546875 C 0 16.621094 2.347656 10.941406 6.527344 6.753906 C 10.707031 2.566406 16.378906 0.214844 22.289062 0.214844 " clip-rule="nonzero"/></clipPath></defs><rect x="-12.6" width="151.2" fill="#ffffff" y="-4.5" height="53.999999" fill-opacity="1"/><rect x="-12.6" width="151.2" fill="#ffffff" y="-4.5" height="53.999999" fill-opacity="1"/><rect x="-12.6" width="151.2" fill="#ffffff" y="-4.5" height="53.999999" fill-opacity="1"/><g clip-path="url(#08b099b32b)"><g clip-path="url(#431e6e4a5f)"><path fill="#000000" d="M 0 0.214844 L 126.515625 0.214844 L 126.515625 45.972656 L 0 45.972656 Z M 0 0.214844 " fill-opacity="1" fill-rule="nonzero"/></g></g><g clip-path="url(#8d593e8773)"><g clip-path="url(#3615816d6c)"><path stroke-linecap="round" transform="matrix(0.531785, 0, 0, 0.532806, 0.000474731, 0.213469)" fill="none" stroke-linejoin="miter" d="M 41.912744 0.00257961 L 195.052507 0.00257961 C 206.166305 0.00257961 216.832026 4.416127 224.691751 12.275467 C 232.551476 20.134808 236.966144 30.794771 236.966144 41.916617 C 236.966144 53.031132 232.551476 63.691096 224.691751 71.550436 C 216.832026 79.409776 206.166305 83.830655 195.052507 83.830655 L 41.912744 83.830655 C 30.798946 83.830655 20.133225 79.409776 12.2735 71.550436 C 4.413775 63.691096 -0.000892712 53.031132 -0.000892712 41.916617 C -0.000892712 30.794771 4.413775 20.134808 12.2735 12.275467 C 20.133225 4.416127 30.798946 0.00257961 41.912744 0.00257961 " stroke="#000000" stroke-width="2.821058" stroke-opacity="1" stroke-miterlimit="4"/></g></g><g fill="#ffffff" fill-opacity="1"><g transform="translate(28.782328, 29.233814)"><g><path d="M 12.945312 0 L 14.300781 0 L 14.300781 -15.519531 L 12.945312 -15.519531 L 12.945312 -8.558594 L 3.859375 -8.558594 L 3.859375 -15.519531 L 2.503906 -15.519531 L 2.503906 0 L 3.859375 0 L 3.859375 -7.273438 L 12.945312 -7.273438 Z M 12.945312 0 "/></g></g></g><g fill="#ffffff" fill-opacity="1"><g transform="translate(45.583722, 29.233814)"><g><path d="M 7.316406 0.289062 C 10.839844 0.289062 13.324219 -2.195312 13.324219 -5.742188 C 13.324219 -9.265625 10.839844 -11.75 7.316406 -11.75 C 3.769531 -11.75 1.285156 -9.265625 1.285156 -5.742188 C 1.285156 -2.195312 3.769531 0.289062 7.316406 0.289062 Z M 2.570312 -5.742188 C 2.570312 -8.558594 4.5 -10.507812 7.316406 -10.507812 C 10.109375 -10.507812 12.039062 -8.558594 12.039062 -5.742188 C 12.039062 -2.902344 10.109375 -0.953125 7.316406 -0.953125 C 4.5 -0.953125 2.570312 -2.902344 2.570312 -5.742188 Z M 2.570312 -5.742188 "/></g></g></g><g fill="#ffffff" fill-opacity="1"><g transform="translate(60.190744, 29.233814)"><g><path d="M 2.285156 0 L 3.570312 0 L 3.570312 -6.296875 C 3.570312 -8.890625 5.03125 -10.507812 7.273438 -10.507812 C 9.464844 -10.507812 10.863281 -8.933594 10.863281 -6.382812 L 10.863281 0 L 12.148438 0 L 12.148438 -6.296875 C 12.148438 -8.890625 13.613281 -10.507812 15.851562 -10.507812 C 18.046875 -10.507812 19.464844 -8.933594 19.464844 -6.382812 L 19.464844 0 L 20.75 0 L 20.75 -6.585938 C 20.75 -9.777344 18.886719 -11.75 16.007812 -11.75 C 13.988281 -11.75 12.414062 -10.753906 11.640625 -9 C 10.972656 -10.753906 9.445312 -11.75 7.449219 -11.75 C 5.675781 -11.75 4.277344 -10.996094 3.480469 -9.597656 L 3.371094 -11.460938 L 2.285156 -11.460938 Z M 2.285156 0 "/></g></g></g><g fill="#ffffff" fill-opacity="1"><g transform="translate(82.954644, 29.233814)"><g><path d="M 7.136719 0.289062 C 9.710938 0.289062 11.792969 -1.0625 12.679688 -3.257812 L 11.238281 -3.28125 C 10.484375 -1.796875 9 -0.929688 7.136719 -0.929688 C 4.589844 -0.929688 2.816406 -2.617188 2.59375 -5.210938 L 13.011719 -5.210938 C 13.101562 -9.089844 10.773438 -11.75 7.160156 -11.75 C 3.679688 -11.75 1.285156 -9.289062 1.285156 -5.742188 C 1.285156 -2.171875 3.65625 0.289062 7.136719 0.289062 Z M 2.59375 -6.339844 C 2.816406 -8.867188 4.609375 -10.53125 7.160156 -10.53125 C 9.664062 -10.53125 11.4375 -8.933594 11.75 -6.339844 Z M 2.59375 -6.339844 "/></g></g></g></svg>