<svg xmlns="http://www.w3.org/2000/svg" xmlns:xlink="http://www.w3.org/1999/xlink" width="168" zoomAndPan="magnify" viewBox="0 0 126 44.999999" height="60" preserveAspectRatio="xMidYMid meet" version="1.0"><defs><g/><clipPath id="fae26ffeff"><path d="M 22.285156 0 L 103.714844 0 C 109.625 0 115.292969 2.347656 119.472656 6.527344 C 123.652344 10.707031 126 16.375 126 22.285156 C 126 28.199219 123.652344 33.867188 119.472656 38.046875 C 115.292969 42.226562 109.625 44.574219 103.714844 44.574219 L 22.285156 44.574219 C 16.375 44.574219 10.707031 42.226562 6.527344 38.046875 C 2.347656 33.867188 0 28.199219 0 22.285156 C 0 16.375 2.347656 10.707031 6.527344 6.527344 C 10.707031 2.347656 16.375 0 22.285156 0 " clip-rule="nonzero"/></clipPath><clipPath id="112721e620"><path d="M 0 0 L 126 0 L 126 44.664062 L 0 44.664062 Z M 0 0 " clip-rule="nonzero"/></clipPath><clipPath id="20bc2bd495"><path d="M 22.289062 0 L 103.726562 0 C 109.636719 0 115.308594 2.351562 119.488281 6.539062 C 123.667969 10.730469 126.015625 16.410156 126.015625 22.332031 C 126.015625 28.253906 123.667969 33.933594 119.488281 38.125 C 115.308594 42.3125 109.636719 44.664062 103.726562 44.664062 L 22.289062 44.664062 C 16.378906 44.664062 10.707031 42.3125 6.527344 38.125 C 2.347656 33.933594 0 28.253906 0 22.332031 C 0 16.410156 2.347656 10.730469 6.527344 6.539062 C 10.707031 2.351562 16.378906 0 22.289062 0 " clip-rule="nonzero"/></clipPath></defs><rect x="-12.6" width="151.2" fill="#ffffff" y="-4.5" height="53.999999" fill-opacity="1"/><rect x="-12.6" width="151.2" fill="#ffffff" y="-4.5" height="53.999999" fill-opacity="1"/><rect x="-12.6" width="151.2" fill="#ffffff" y="-4.5" height="53.999999" fill-opacity="1"/><g clip-path="url(#fae26ffeff)"><rect x="-12.6" width="151.2" fill="#000000" y="-4.5" height="53.999999" fill-opacity="1"/></g><g clip-path="url(#112721e620)"><g clip-path="url(#20bc2bd495)"><path stroke-linecap="round" transform="matrix(0.531785, 0, 0, 0.532806, 0.000474731, -0.000000000000031776)" fill="none" stroke-linejoin="miter" d="M 41.912744 0.000000000000059638 L 195.052507 0.000000000000059638 C 206.166305 0.000000000000059638 216.832026 4.413547 224.691751 12.272888 C 232.551476 20.139559 236.966144 30.799523 236.966144 41.914038 C 236.966144 53.028553 232.551476 63.688516 224.691751 71.555188 C 216.832026 79.414528 206.166305 83.828075 195.052507 83.828075 L 41.912744 83.828075 C 30.798946 83.828075 20.133225 79.414528 12.2735 71.555188 C 4.413775 63.688516 -0.000892712 53.028553 -0.000892712 41.914038 C -0.000892712 30.799523 4.413775 20.139559 12.2735 12.272888 C 20.133225 4.413547 30.798946 0.000000000000059638 41.912744 0.000000000000059638 " stroke="#000000" stroke-width="2.821058" stroke-opacity="1" stroke-miterlimit="4"/></g></g><g fill="#ffffff" fill-opacity="1"><g transform="translate(38.146539, 29.020345)"><g><path d="M 9.289062 0.289062 C 12.945312 0.289062 15.941406 -1.863281 16.894531 -5.210938 L 15.472656 -5.210938 C 14.609375 -2.636719 12.214844 -1.0625 9.3125 -1.0625 C 5.519531 -1.0625 2.792969 -3.789062 2.792969 -7.757812 C 2.792969 -11.726562 5.519531 -14.453125 9.3125 -14.453125 C 12.148438 -14.453125 14.453125 -12.945312 15.339844 -10.484375 L 16.761719 -10.484375 C 15.738281 -13.746094 12.835938 -15.808594 9.289062 -15.808594 C 4.722656 -15.808594 1.417969 -12.480469 1.417969 -7.757812 C 1.417969 -3.039062 4.722656 0.289062 9.289062 0.289062 Z M 9.289062 0.289062 "/></g></g></g><g fill="#ffffff" fill-opacity="1"><g transform="translate(56.36652, 29.020345)"><g><path d="M 5.875 0.175781 C 7.914062 0.175781 9.597656 -0.597656 10.597656 -1.972656 L 10.730469 0 L 11.792969 0 L 11.792969 -7.449219 C 11.792969 -10 9.820312 -11.75 6.960938 -11.75 C 4.523438 -11.75 2.683594 -10.417969 2.128906 -8.292969 L 3.4375 -8.292969 C 3.902344 -9.664062 5.253906 -10.550781 6.984375 -10.550781 C 9.113281 -10.550781 10.507812 -9.289062 10.507812 -7.382812 L 10.507812 -6.5625 L 5.453125 -6.5625 C 3.105469 -6.5625 1.550781 -5.277344 1.550781 -3.238281 C 1.550781 -1.128906 3.214844 0.175781 5.875 0.175781 Z M 2.835938 -3.257812 C 2.835938 -4.566406 3.925781 -5.429688 5.496094 -5.429688 L 10.53125 -5.429688 L 10.53125 -4.945312 C 10.53125 -2.636719 8.578125 -0.976562 5.917969 -0.976562 C 4.011719 -0.976562 2.835938 -1.863281 2.835938 -3.257812 Z M 2.835938 -3.257812 "/></g></g></g><g fill="#ffffff" fill-opacity="1"><g transform="translate(70.197747, 29.020345)"><g><path d="M 2.285156 0 L 3.570312 0 L 3.570312 -16.40625 L 2.285156 -16.40625 Z M 2.285156 0 "/></g></g></g><g fill="#ffffff" fill-opacity="1"><g transform="translate(76.04942, 29.020345)"><g><path d="M 2.285156 0 L 3.570312 0 L 3.570312 -16.40625 L 2.285156 -16.40625 Z M 2.285156 0 "/></g></g></g><g fill="#ffffff" fill-opacity="1"><g transform="translate(81.892953, 29.020345)"><g/></g></g></svg>