<svg xmlns="http://www.w3.org/2000/svg" xmlns:xlink="http://www.w3.org/1999/xlink" width="168" zoomAndPan="magnify" viewBox="0 0 126 44.999999" height="60" preserveAspectRatio="xMidYMid meet" version="1.0"><defs><g/><clipPath id="cfa9dba01d"><path d="M 22.285156 0 L 103.714844 0 C 109.625 0 115.292969 2.347656 119.472656 6.527344 C 123.652344 10.707031 126 16.375 126 22.285156 C 126 28.199219 123.652344 33.867188 119.472656 38.046875 C 115.292969 42.226562 109.625 44.574219 103.714844 44.574219 L 22.285156 44.574219 C 16.375 44.574219 10.707031 42.226562 6.527344 38.046875 C 2.347656 33.867188 0 28.199219 0 22.285156 C 0 16.375 2.347656 10.707031 6.527344 6.527344 C 10.707031 2.347656 16.375 0 22.285156 0 " clip-rule="nonzero"/></clipPath><clipPath id="fb086e4eba"><path d="M 0 0 L 126 0 L 126 44.664062 L 0 44.664062 Z M 0 0 " clip-rule="nonzero"/></clipPath><clipPath id="7b6eee5b96"><path d="M 22.289062 0 L 103.726562 0 C 109.636719 0 115.308594 2.351562 119.488281 6.539062 C 123.667969 10.730469 126.015625 16.410156 126.015625 22.332031 C 126.015625 28.253906 123.667969 33.933594 119.488281 38.125 C 115.308594 42.3125 109.636719 44.664062 103.726562 44.664062 L 22.289062 44.664062 C 16.378906 44.664062 10.707031 42.3125 6.527344 38.125 C 2.347656 33.933594 0 28.253906 0 22.332031 C 0 16.410156 2.347656 10.730469 6.527344 6.539062 C 10.707031 2.351562 16.378906 0 22.289062 0 " clip-rule="nonzero"/></clipPath></defs><rect x="-12.6" width="151.2" fill="#ffffff" y="-4.5" height="53.999999" fill-opacity="1"/><rect x="-12.6" width="151.2" fill="#ffffff" y="-4.5" height="53.999999" fill-opacity="1"/><rect x="-12.6" width="151.2" fill="#ffffff" y="-4.5" height="53.999999" fill-opacity="1"/><g clip-path="url(#cfa9dba01d)"><rect x="-12.6" width="151.2" fill="#000000" y="-4.5" height="53.999999" fill-opacity="1"/></g><g clip-path="url(#fb086e4eba)"><g clip-path="url(#7b6eee5b96)"><path stroke-linecap="round" transform="matrix(0.531785, 0, 0, 0.532806, 0.000474731, -0.000000000000037105)" fill="none" stroke-linejoin="miter" d="M 41.912744 0.00000000000006964 L 195.052507 0.00000000000006964 C 206.166305 0.00000000000006964 216.832026 4.413547 224.691751 12.272888 C 232.551476 20.139559 236.966144 30.799523 236.966144 41.914038 C 236.966144 53.028553 232.551476 63.688516 224.691751 71.555188 C 216.832026 79.414528 206.166305 83.828075 195.052507 83.828075 L 41.912744 83.828075 C 30.798946 83.828075 20.133225 79.414528 12.2735 71.555188 C 4.413775 63.688516 -0.000892712 53.028553 -0.000892712 41.914038 C -0.000892712 30.799523 4.413775 20.139559 12.2735 12.272888 C 20.133225 4.413547 30.798946 0.00000000000006964 41.912744 0.00000000000006964 " stroke="#000000" stroke-width="2.821058" stroke-opacity="1" stroke-miterlimit="4"/></g></g><g fill="#ffffff" fill-opacity="1"><g transform="translate(25.216679, 29.020345)"><g><path d="M 0.488281 0 L 1.929688 0 L 3.523438 -3.902344 L 11.59375 -3.902344 L 13.210938 0 L 14.632812 0 L 8.203125 -15.519531 L 6.917969 -15.519531 Z M 4.058594 -5.144531 L 7.558594 -13.679688 L 11.085938 -5.144531 Z M 4.058594 -5.144531 "/></g></g></g><g fill="#ffffff" fill-opacity="1"><g transform="translate(40.355672, 29.020345)"><g><path d="M 8.402344 0.289062 C 11.882812 0.289062 14.277344 -2.261719 14.277344 -5.742188 C 14.277344 -9.222656 11.882812 -11.75 8.402344 -11.75 C 6.296875 -11.75 4.589844 -10.820312 3.570312 -9.289062 L 3.570312 -16.40625 L 2.285156 -16.40625 L 2.285156 0 L 3.371094 0 L 3.503906 -2.285156 C 4.5 -0.710938 6.25 0.289062 8.402344 0.289062 Z M 3.523438 -5.742188 C 3.523438 -8.535156 5.453125 -10.507812 8.269531 -10.507812 C 11.085938 -10.507812 12.992188 -8.535156 12.992188 -5.742188 C 12.992188 -2.925781 11.085938 -0.953125 8.269531 -0.953125 C 5.453125 -0.953125 3.523438 -2.925781 3.523438 -5.742188 Z M 3.523438 -5.742188 "/></g></g></g><g fill="#ffffff" fill-opacity="1"><g transform="translate(55.915802, 29.020345)"><g><path d="M 7.316406 0.289062 C 10.839844 0.289062 13.324219 -2.195312 13.324219 -5.742188 C 13.324219 -9.265625 10.839844 -11.75 7.316406 -11.75 C 3.769531 -11.75 1.285156 -9.265625 1.285156 -5.742188 C 1.285156 -2.195312 3.769531 0.289062 7.316406 0.289062 Z M 2.570312 -5.742188 C 2.570312 -8.558594 4.5 -10.507812 7.316406 -10.507812 C 10.109375 -10.507812 12.039062 -8.558594 12.039062 -5.742188 C 12.039062 -2.902344 10.109375 -0.953125 7.316406 -0.953125 C 4.5 -0.953125 2.570312 -2.902344 2.570312 -5.742188 Z M 2.570312 -5.742188 "/></g></g></g><g fill="#ffffff" fill-opacity="1"><g transform="translate(70.522824, 29.020345)"><g><path d="M 6.804688 0.289062 C 8.601562 0.289062 10.199219 -0.578125 11.085938 -2.238281 L 11.21875 0 L 12.28125 0 L 12.28125 -11.460938 L 10.996094 -11.460938 L 10.996094 -5.542969 C 10.996094 -2.816406 9.355469 -0.953125 6.984375 -0.953125 C 4.722656 -0.953125 3.324219 -2.617188 3.324219 -5.230469 L 3.324219 -11.460938 L 2.039062 -11.460938 L 2.039062 -5.121094 C 2.039062 -1.816406 3.859375 0.289062 6.804688 0.289062 Z M 6.804688 0.289062 "/></g></g></g><g fill="#ffffff" fill-opacity="1"><g transform="translate(85.085516, 29.020345)"><g><path d="M 6.9375 0 L 8.601562 0 L 8.601562 -1.242188 L 6.984375 -1.242188 C 5.253906 -1.242188 4.476562 -2.128906 4.476562 -4.011719 L 4.476562 -10.285156 L 8.445312 -10.285156 L 8.445312 -11.460938 L 4.476562 -11.460938 L 4.476562 -14.277344 L 3.457031 -14.277344 L 3.347656 -12.527344 C 3.257812 -11.683594 3.015625 -11.460938 2.152344 -11.460938 L 0.6875 -11.460938 L 0.6875 -10.285156 L 3.191406 -10.285156 L 3.191406 -3.96875 C 3.191406 -1.375 4.5 0 6.9375 0 Z M 6.9375 0 "/></g></g></g><g fill="#ffffff" fill-opacity="1"><g transform="translate(94.834503, 29.020345)"><g/></g></g></svg>