<svg xmlns="http://www.w3.org/2000/svg" xmlns:xlink="http://www.w3.org/1999/xlink" width="364" zoomAndPan="magnify" viewBox="0 0 273 92.249997" height="123" preserveAspectRatio="xMidYMid meet" version="1.0"><defs><g/><clipPath id="2db2475bed"><path d="M 1.101562 0 L 271.898438 0 L 271.898438 91.507812 L 1.101562 91.507812 Z M 1.101562 0 " clip-rule="nonzero"/></clipPath><clipPath id="97b3717751"><path d="M 1.101562 0.0429688 L 271.898438 0.0429688 L 271.898438 91 L 1.101562 91 Z M 1.101562 0.0429688 " clip-rule="nonzero"/></clipPath><clipPath id="3c89bbae31"><path d="M 88.6875 34.296875 L 112.492188 34.296875 L 112.492188 58.847656 L 88.6875 58.847656 Z M 88.6875 34.296875 " clip-rule="nonzero"/></clipPath></defs><g clip-path="url(#2db2475bed)"><path fill="#ffffff" d="M 1.101562 0 L 271.898438 0 L 271.898438 98.945312 L 1.101562 98.945312 Z M 1.101562 0 " fill-opacity="1" fill-rule="nonzero"/><path fill="#ffffff" d="M 1.101562 0 L 271.898438 0 L 271.898438 91.507812 L 1.101562 91.507812 Z M 1.101562 0 " fill-opacity="1" fill-rule="nonzero"/><path fill="#ffffff" d="M 1.101562 0 L 271.898438 0 L 271.898438 91.507812 L 1.101562 91.507812 Z M 1.101562 0 " fill-opacity="1" fill-rule="nonzero"/></g><g clip-path="url(#97b3717751)"><path fill="#000000" d="M 1.101562 0.0429688 L 271.929688 0.0429688 L 271.929688 90.320312 L 1.101562 90.320312 Z M 1.101562 0.0429688 " fill-opacity="1" fill-rule="nonzero"/></g><g clip-path="url(#3c89bbae31)"><path fill="#ffffff" d="M 95.351562 36.535156 C 95.941406 37.265625 96.472656 38.042969 97.015625 38.808594 C 98.097656 40.339844 98.183594 41.738281 96.449219 42.882812 C 95.476562 43.527344 95.433594 44.421875 95.863281 45.359375 C 97.046875 47.945312 98.863281 49.941406 101.503906 51.105469 C 102.671875 51.621094 103.71875 51.613281 104.542969 50.398438 C 104.980469 49.757812 105.496094 49.113281 106.449219 49.160156 C 107.695312 49.226562 111.859375 52.230469 112.300781 53.417969 C 112.480469 53.910156 112.472656 54.398438 112.304688 54.898438 C 111.367188 57.691406 109.066406 58.847656 106.34375 57.746094 C 98.207031 54.464844 92.539062 48.667969 89.070312 40.683594 C 88.875 40.226562 88.792969 39.71875 88.722656 39.464844 C 88.703125 37.644531 90.457031 35.511719 92.203125 34.890625 C 93.882812 34.296875 94.550781 35.546875 95.351562 36.535156 " fill-opacity="1" fill-rule="nonzero"/></g><g fill="#ffffff" fill-opacity="1"><g transform="translate(1.119293, 55.764427)"><g><path d="M 8.640625 0.21875 C 7.273438 0.21875 6.054688 -0.09375 4.984375 -0.71875 C 3.910156 -1.34375 3.070312 -2.257812 2.46875 -3.46875 C 1.863281 -4.675781 1.5625 -6.125 1.5625 -7.8125 C 1.5625 -9.507812 1.863281 -10.960938 2.46875 -12.171875 C 3.070312 -13.378906 3.910156 -14.296875 4.984375 -14.921875 C 6.054688 -15.546875 7.273438 -15.859375 8.640625 -15.859375 C 10.097656 -15.859375 11.3125 -15.582031 12.28125 -15.03125 C 13.257812 -14.476562 13.960938 -13.644531 14.390625 -12.53125 L 13.203125 -11.75 L 12.9375 -11.75 C 12.507812 -12.644531 11.953125 -13.28125 11.265625 -13.65625 C 10.585938 -14.03125 9.710938 -14.21875 8.640625 -14.21875 C 7.660156 -14.21875 6.785156 -14 6.015625 -13.5625 C 5.253906 -13.125 4.648438 -12.425781 4.203125 -11.46875 C 3.753906 -10.519531 3.53125 -9.300781 3.53125 -7.8125 C 3.53125 -6.332031 3.753906 -5.117188 4.203125 -4.171875 C 4.648438 -3.222656 5.253906 -2.53125 6.015625 -2.09375 C 6.785156 -1.65625 7.660156 -1.4375 8.640625 -1.4375 C 9.773438 -1.4375 10.703125 -1.691406 11.421875 -2.203125 C 12.140625 -2.710938 12.675781 -3.535156 13.03125 -4.671875 L 13.296875 -4.671875 L 14.53125 -4.0625 C 14.15625 -2.675781 13.46875 -1.613281 12.46875 -0.875 C 11.46875 -0.144531 10.191406 0.21875 8.640625 0.21875 Z M 8.640625 0.21875 "/></g></g></g><g fill="#ffffff" fill-opacity="1"><g transform="translate(16.448265, 55.764427)"><g><path d="M 14.078125 0 L 12.109375 0 L 10.671875 -4.296875 L 4 -4.296875 L 2.546875 0 L 0.625 0 L 6.078125 -15.640625 L 8.625 -15.640625 Z M 7.203125 -13.75 L 4.515625 -5.828125 L 10.140625 -5.828125 L 7.46875 -13.75 Z M 7.203125 -13.75 "/></g></g></g><g fill="#ffffff" fill-opacity="1"><g transform="translate(31.135858, 55.764427)"><g><path d="M 4.703125 0.21875 C 3.859375 0.21875 3.195312 -0.015625 2.71875 -0.484375 C 2.25 -0.960938 2.015625 -1.671875 2.015625 -2.609375 L 2.015625 -16.53125 L 3.75 -16.53125 L 3.75 -2.734375 C 3.75 -2.234375 3.84375 -1.875 4.03125 -1.65625 C 4.226562 -1.445312 4.523438 -1.34375 4.921875 -1.34375 C 5.160156 -1.34375 5.40625 -1.378906 5.65625 -1.453125 L 5.8125 -1.40625 L 6.015625 -0.046875 C 5.878906 0.0351562 5.691406 0.0976562 5.453125 0.140625 C 5.222656 0.191406 4.972656 0.21875 4.703125 0.21875 Z M 4.703125 0.21875 "/></g></g></g><g fill="#ffffff" fill-opacity="1"><g transform="translate(37.549653, 55.764427)"><g><path d="M 4.703125 0.21875 C 3.859375 0.21875 3.195312 -0.015625 2.71875 -0.484375 C 2.25 -0.960938 2.015625 -1.671875 2.015625 -2.609375 L 2.015625 -16.53125 L 3.75 -16.53125 L 3.75 -2.734375 C 3.75 -2.234375 3.84375 -1.875 4.03125 -1.65625 C 4.226562 -1.445312 4.523438 -1.34375 4.921875 -1.34375 C 5.160156 -1.34375 5.40625 -1.378906 5.65625 -1.453125 L 5.8125 -1.40625 L 6.015625 -0.046875 C 5.878906 0.0351562 5.691406 0.0976562 5.453125 0.140625 C 5.222656 0.191406 4.972656 0.21875 4.703125 0.21875 Z M 4.703125 0.21875 "/></g></g></g><g fill="#ffffff" fill-opacity="1"><g transform="translate(43.963449, 55.764427)"><g/></g></g><g fill="#ffffff" fill-opacity="1"><g transform="translate(49.329658, 55.764427)"><g><path d="M 8.0625 0.21875 C 6.144531 0.21875 4.691406 -0.265625 3.703125 -1.234375 C 2.722656 -2.210938 2.234375 -3.65625 2.234375 -5.5625 L 2.234375 -15.640625 L 4.0625 -15.640625 L 4.0625 -5.578125 C 4.0625 -4.210938 4.390625 -3.1875 5.046875 -2.5 C 5.710938 -1.8125 6.71875 -1.46875 8.0625 -1.46875 C 10.726562 -1.46875 12.0625 -2.835938 12.0625 -5.578125 L 12.0625 -15.640625 L 13.890625 -15.640625 L 13.890625 -5.5625 C 13.890625 -3.65625 13.394531 -2.210938 12.40625 -1.234375 C 11.425781 -0.265625 9.976562 0.21875 8.0625 0.21875 Z M 8.0625 0.21875 "/></g></g></g><g fill="#ffffff" fill-opacity="1"><g transform="translate(65.43898, 55.764427)"><g><path d="M 6.828125 0.21875 C 5.847656 0.21875 4.96875 0.0859375 4.1875 -0.171875 C 3.40625 -0.441406 2.753906 -0.789062 2.234375 -1.21875 C 1.710938 -1.65625 1.320312 -2.132812 1.0625 -2.65625 L 2.078125 -3.875 L 2.34375 -3.875 C 3.3125 -2.25 4.804688 -1.4375 6.828125 -1.4375 C 8.003906 -1.4375 8.878906 -1.679688 9.453125 -2.171875 C 10.035156 -2.660156 10.328125 -3.34375 10.328125 -4.21875 C 10.328125 -4.738281 10.226562 -5.175781 10.03125 -5.53125 C 9.84375 -5.882812 9.53125 -6.1875 9.09375 -6.4375 C 8.664062 -6.695312 8.078125 -6.921875 7.328125 -7.109375 L 5.5 -7.546875 C 4.132812 -7.878906 3.128906 -8.398438 2.484375 -9.109375 C 1.835938 -9.828125 1.515625 -10.738281 1.515625 -11.84375 C 1.515625 -12.613281 1.710938 -13.300781 2.109375 -13.90625 C 2.515625 -14.519531 3.101562 -15 3.875 -15.34375 C 4.644531 -15.6875 5.5625 -15.859375 6.625 -15.859375 C 7.800781 -15.859375 8.796875 -15.691406 9.609375 -15.359375 C 10.421875 -15.035156 11.066406 -14.539062 11.546875 -13.875 L 10.65625 -12.671875 L 10.390625 -12.671875 C 9.941406 -13.210938 9.410156 -13.613281 8.796875 -13.875 C 8.179688 -14.132812 7.457031 -14.265625 6.625 -14.265625 C 5.539062 -14.265625 4.722656 -14.050781 4.171875 -13.625 C 3.617188 -13.207031 3.34375 -12.628906 3.34375 -11.890625 C 3.34375 -11.179688 3.546875 -10.617188 3.953125 -10.203125 C 4.359375 -9.785156 5.046875 -9.460938 6.015625 -9.234375 L 7.890625 -8.78125 C 9.398438 -8.425781 10.492188 -7.878906 11.171875 -7.140625 C 11.859375 -6.398438 12.203125 -5.457031 12.203125 -4.3125 C 12.203125 -3.425781 12.003906 -2.640625 11.609375 -1.953125 C 11.210938 -1.273438 10.609375 -0.742188 9.796875 -0.359375 C 8.992188 0.0234375 8.003906 0.21875 6.828125 0.21875 Z M 6.828125 0.21875 "/></g></g></g><g fill="#ffffff" fill-opacity="1"><g transform="translate(78.833128, 55.764427)"><g><path d="M 2.875 0.109375 C 2.46875 0.109375 2.144531 -0.00390625 1.90625 -0.234375 C 1.675781 -0.460938 1.5625 -0.765625 1.5625 -1.140625 C 1.5625 -1.515625 1.675781 -1.820312 1.90625 -2.0625 C 2.144531 -2.300781 2.46875 -2.421875 2.875 -2.421875 C 3.289062 -2.421875 3.613281 -2.304688 3.84375 -2.078125 C 4.082031 -1.847656 4.203125 -1.546875 4.203125 -1.171875 C 4.203125 -0.785156 4.082031 -0.472656 3.84375 -0.234375 C 3.601562 -0.00390625 3.28125 0.109375 2.875 0.109375 Z M 2.875 -9.40625 C 2.46875 -9.40625 2.144531 -9.519531 1.90625 -9.75 C 1.675781 -9.976562 1.5625 -10.28125 1.5625 -10.65625 C 1.5625 -11.03125 1.675781 -11.335938 1.90625 -11.578125 C 2.144531 -11.816406 2.46875 -11.9375 2.875 -11.9375 C 3.289062 -11.9375 3.613281 -11.820312 3.84375 -11.59375 C 4.082031 -11.363281 4.203125 -11.0625 4.203125 -10.6875 C 4.203125 -10.300781 4.082031 -9.988281 3.84375 -9.75 C 3.601562 -9.519531 3.28125 -9.40625 2.875 -9.40625 Z M 2.875 -9.40625 "/></g></g></g><g fill="#ffffff" fill-opacity="1"><g transform="translate(123.460329, 54.267823)"><g><path d="M 4.234375 0 L 2.453125 0 L 8.25 -13.828125 L 8.1875 -14.046875 L 0.578125 -14.046875 L 0.578125 -15.609375 L 10.09375 -15.609375 L 10.09375 -13.921875 Z M 4.234375 0 "/></g></g></g><g fill="#ffffff" fill-opacity="1"><g transform="translate(134.238823, 54.267823)"><g><path d="M 7.671875 0.21875 C 6.523438 0.21875 5.492188 -0.0546875 4.578125 -0.609375 C 3.671875 -1.160156 2.945312 -2.035156 2.40625 -3.234375 C 1.863281 -4.429688 1.59375 -5.953125 1.59375 -7.796875 C 1.59375 -9.648438 1.863281 -11.175781 2.40625 -12.375 C 2.945312 -13.570312 3.671875 -14.445312 4.578125 -15 C 5.492188 -15.550781 6.523438 -15.828125 7.671875 -15.828125 C 8.816406 -15.828125 9.84375 -15.550781 10.75 -15 C 11.664062 -14.445312 12.390625 -13.570312 12.921875 -12.375 C 13.460938 -11.175781 13.734375 -9.648438 13.734375 -7.796875 C 13.734375 -5.953125 13.460938 -4.429688 12.921875 -3.234375 C 12.390625 -2.035156 11.664062 -1.160156 10.75 -0.609375 C 9.84375 -0.0546875 8.816406 0.21875 7.671875 0.21875 Z M 7.671875 -1.46875 C 9.035156 -1.46875 10.066406 -1.957031 10.765625 -2.9375 C 11.460938 -3.914062 11.8125 -5.535156 11.8125 -7.796875 C 11.8125 -10.066406 11.460938 -11.6875 10.765625 -12.65625 C 10.066406 -13.632812 9.035156 -14.125 7.671875 -14.125 C 6.773438 -14.125 6.019531 -13.914062 5.40625 -13.5 C 4.800781 -13.09375 4.332031 -12.421875 4 -11.484375 C 3.675781 -10.554688 3.515625 -9.328125 3.515625 -7.796875 C 3.515625 -6.265625 3.675781 -5.035156 4 -4.109375 C 4.332031 -3.179688 4.800781 -2.507812 5.40625 -2.09375 C 6.019531 -1.675781 6.773438 -1.46875 7.671875 -1.46875 Z M 7.671875 -1.46875 "/></g></g></g><g fill="#ffffff" fill-opacity="1"><g transform="translate(149.584836, 54.267823)"><g><path d="M 6.59375 0.21875 C 5.457031 0.21875 4.484375 0.0351562 3.671875 -0.328125 C 2.867188 -0.691406 2.253906 -1.210938 1.828125 -1.890625 C 1.410156 -2.566406 1.203125 -3.367188 1.203125 -4.296875 C 1.203125 -5.285156 1.445312 -6.109375 1.9375 -6.765625 C 2.425781 -7.429688 3.15625 -7.957031 4.125 -8.34375 L 4.125 -8.5625 C 3.445312 -8.96875 2.921875 -9.4375 2.546875 -9.96875 C 2.179688 -10.507812 2 -11.144531 2 -11.875 C 2 -12.675781 2.1875 -13.375 2.5625 -13.96875 C 2.945312 -14.5625 3.484375 -15.019531 4.171875 -15.34375 C 4.867188 -15.664062 5.675781 -15.828125 6.59375 -15.828125 C 7.507812 -15.828125 8.316406 -15.664062 9.015625 -15.34375 C 9.710938 -15.019531 10.25 -14.5625 10.625 -13.96875 C 11.007812 -13.375 11.203125 -12.675781 11.203125 -11.875 C 11.203125 -11.144531 11.015625 -10.507812 10.640625 -9.96875 C 10.273438 -9.4375 9.753906 -8.96875 9.078125 -8.5625 L 9.078125 -8.34375 C 10.046875 -7.957031 10.773438 -7.429688 11.265625 -6.765625 C 11.753906 -6.109375 12 -5.285156 12 -4.296875 C 12 -3.367188 11.785156 -2.566406 11.359375 -1.890625 C 10.941406 -1.210938 10.328125 -0.691406 9.515625 -0.328125 C 8.703125 0.0351562 7.726562 0.21875 6.59375 0.21875 Z M 6.59375 -9.046875 C 7.144531 -9.046875 7.632812 -9.148438 8.0625 -9.359375 C 8.488281 -9.578125 8.816406 -9.878906 9.046875 -10.265625 C 9.285156 -10.660156 9.40625 -11.128906 9.40625 -11.671875 C 9.40625 -12.210938 9.285156 -12.679688 9.046875 -13.078125 C 8.816406 -13.472656 8.488281 -13.773438 8.0625 -13.984375 C 7.632812 -14.203125 7.144531 -14.3125 6.59375 -14.3125 C 5.738281 -14.3125 5.054688 -14.070312 4.546875 -13.59375 C 4.046875 -13.125 3.796875 -12.484375 3.796875 -11.671875 C 3.796875 -10.859375 4.046875 -10.21875 4.546875 -9.75 C 5.054688 -9.28125 5.738281 -9.046875 6.59375 -9.046875 Z M 6.59375 -1.390625 C 7.71875 -1.390625 8.578125 -1.65625 9.171875 -2.1875 C 9.773438 -2.71875 10.078125 -3.460938 10.078125 -4.421875 C 10.078125 -5.367188 9.773438 -6.109375 9.171875 -6.640625 C 8.578125 -7.179688 7.71875 -7.453125 6.59375 -7.453125 C 5.46875 -7.453125 4.601562 -7.179688 4 -6.640625 C 3.40625 -6.109375 3.109375 -5.367188 3.109375 -4.421875 C 3.109375 -3.460938 3.40625 -2.71875 4 -2.1875 C 4.601562 -1.65625 5.46875 -1.390625 6.59375 -1.390625 Z M 6.59375 -1.390625 "/></g></g></g><g fill="#ffffff" fill-opacity="1"><g transform="translate(162.785823, 54.267823)"><g><path d="M 7.1875 -6.796875 L 1.109375 -6.796875 L 1.109375 -8.359375 L 7.1875 -8.359375 Z M 7.1875 -6.796875 "/></g></g></g><g fill="#ffffff" fill-opacity="1"><g transform="translate(171.067121, 54.267823)"><g><path d="M 7.453125 0.21875 C 6.347656 0.21875 5.359375 -0.0390625 4.484375 -0.5625 C 3.609375 -1.09375 2.90625 -1.957031 2.375 -3.15625 C 1.851562 -4.351562 1.59375 -5.898438 1.59375 -7.796875 C 1.59375 -9.640625 1.851562 -11.160156 2.375 -12.359375 C 2.90625 -13.554688 3.617188 -14.429688 4.515625 -14.984375 C 5.421875 -15.546875 6.457031 -15.828125 7.625 -15.828125 C 9.625 -15.828125 11.097656 -15.21875 12.046875 -14 L 11.140625 -12.796875 L 10.875 -12.796875 C 10.101562 -13.722656 9.019531 -14.1875 7.625 -14.1875 C 6.269531 -14.1875 5.234375 -13.675781 4.515625 -12.65625 C 3.804688 -11.632812 3.453125 -10.003906 3.453125 -7.765625 L 3.6875 -7.703125 C 4.113281 -8.578125 4.664062 -9.234375 5.34375 -9.671875 C 6.03125 -10.117188 6.867188 -10.34375 7.859375 -10.34375 C 8.847656 -10.34375 9.703125 -10.128906 10.421875 -9.703125 C 11.148438 -9.285156 11.707031 -8.679688 12.09375 -7.890625 C 12.476562 -7.097656 12.671875 -6.160156 12.671875 -5.078125 C 12.671875 -3.992188 12.457031 -3.050781 12.03125 -2.25 C 11.601562 -1.457031 10.992188 -0.847656 10.203125 -0.421875 C 9.421875 0.00390625 8.503906 0.21875 7.453125 0.21875 Z M 7.453125 -1.4375 C 8.484375 -1.4375 9.289062 -1.75 9.875 -2.375 C 10.457031 -3 10.75 -3.898438 10.75 -5.078125 C 10.75 -6.265625 10.457031 -7.171875 9.875 -7.796875 C 9.289062 -8.421875 8.484375 -8.734375 7.453125 -8.734375 C 6.742188 -8.734375 6.128906 -8.585938 5.609375 -8.296875 C 5.085938 -8.015625 4.6875 -7.597656 4.40625 -7.046875 C 4.125 -6.503906 3.984375 -5.847656 3.984375 -5.078125 C 3.984375 -4.316406 4.125 -3.660156 4.40625 -3.109375 C 4.6875 -2.566406 5.085938 -2.148438 5.609375 -1.859375 C 6.128906 -1.578125 6.742188 -1.4375 7.453125 -1.4375 Z M 7.453125 -1.4375 "/></g></g></g><g fill="#ffffff" fill-opacity="1"><g transform="translate(185.121849, 54.267823)"><g><path d="M 6.59375 0.21875 C 5.457031 0.21875 4.484375 0.0351562 3.671875 -0.328125 C 2.867188 -0.691406 2.253906 -1.210938 1.828125 -1.890625 C 1.410156 -2.566406 1.203125 -3.367188 1.203125 -4.296875 C 1.203125 -5.285156 1.445312 -6.109375 1.9375 -6.765625 C 2.425781 -7.429688 3.15625 -7.957031 4.125 -8.34375 L 4.125 -8.5625 C 3.445312 -8.96875 2.921875 -9.4375 2.546875 -9.96875 C 2.179688 -10.507812 2 -11.144531 2 -11.875 C 2 -12.675781 2.1875 -13.375 2.5625 -13.96875 C 2.945312 -14.5625 3.484375 -15.019531 4.171875 -15.34375 C 4.867188 -15.664062 5.675781 -15.828125 6.59375 -15.828125 C 7.507812 -15.828125 8.316406 -15.664062 9.015625 -15.34375 C 9.710938 -15.019531 10.25 -14.5625 10.625 -13.96875 C 11.007812 -13.375 11.203125 -12.675781 11.203125 -11.875 C 11.203125 -11.144531 11.015625 -10.507812 10.640625 -9.96875 C 10.273438 -9.4375 9.753906 -8.96875 9.078125 -8.5625 L 9.078125 -8.34375 C 10.046875 -7.957031 10.773438 -7.429688 11.265625 -6.765625 C 11.753906 -6.109375 12 -5.285156 12 -4.296875 C 12 -3.367188 11.785156 -2.566406 11.359375 -1.890625 C 10.941406 -1.210938 10.328125 -0.691406 9.515625 -0.328125 C 8.703125 0.0351562 7.726562 0.21875 6.59375 0.21875 Z M 6.59375 -9.046875 C 7.144531 -9.046875 7.632812 -9.148438 8.0625 -9.359375 C 8.488281 -9.578125 8.816406 -9.878906 9.046875 -10.265625 C 9.285156 -10.660156 9.40625 -11.128906 9.40625 -11.671875 C 9.40625 -12.210938 9.285156 -12.679688 9.046875 -13.078125 C 8.816406 -13.472656 8.488281 -13.773438 8.0625 -13.984375 C 7.632812 -14.203125 7.144531 -14.3125 6.59375 -14.3125 C 5.738281 -14.3125 5.054688 -14.070312 4.546875 -13.59375 C 4.046875 -13.125 3.796875 -12.484375 3.796875 -11.671875 C 3.796875 -10.859375 4.046875 -10.21875 4.546875 -9.75 C 5.054688 -9.28125 5.738281 -9.046875 6.59375 -9.046875 Z M 6.59375 -1.390625 C 7.71875 -1.390625 8.578125 -1.65625 9.171875 -2.1875 C 9.773438 -2.71875 10.078125 -3.460938 10.078125 -4.421875 C 10.078125 -5.367188 9.773438 -6.109375 9.171875 -6.640625 C 8.578125 -7.179688 7.71875 -7.453125 6.59375 -7.453125 C 5.46875 -7.453125 4.601562 -7.179688 4 -6.640625 C 3.40625 -6.109375 3.109375 -5.367188 3.109375 -4.421875 C 3.109375 -3.460938 3.40625 -2.71875 4 -2.1875 C 4.601562 -1.65625 5.46875 -1.390625 6.59375 -1.390625 Z M 6.59375 -1.390625 "/></g></g></g><g fill="#ffffff" fill-opacity="1"><g transform="translate(198.322836, 54.267823)"><g><path d="M 6.59375 0.21875 C 5.238281 0.21875 4.140625 -0.0859375 3.296875 -0.703125 C 2.453125 -1.316406 1.921875 -2.160156 1.703125 -3.234375 L 3.046875 -3.859375 L 3.296875 -3.8125 C 3.546875 -3.019531 3.925781 -2.425781 4.4375 -2.03125 C 4.957031 -1.632812 5.675781 -1.4375 6.59375 -1.4375 C 7.882812 -1.4375 8.875 -1.972656 9.5625 -3.046875 C 10.25 -4.128906 10.59375 -5.800781 10.59375 -8.0625 L 10.359375 -8.140625 C 9.929688 -7.242188 9.378906 -6.578125 8.703125 -6.140625 C 8.035156 -5.703125 7.195312 -5.484375 6.1875 -5.484375 C 5.207031 -5.484375 4.351562 -5.691406 3.625 -6.109375 C 2.90625 -6.535156 2.351562 -7.132812 1.96875 -7.90625 C 1.582031 -8.6875 1.390625 -9.59375 1.390625 -10.625 C 1.390625 -11.65625 1.601562 -12.5625 2.03125 -13.34375 C 2.457031 -14.132812 3.0625 -14.742188 3.84375 -15.171875 C 4.632812 -15.609375 5.550781 -15.828125 6.59375 -15.828125 C 8.425781 -15.828125 9.859375 -15.207031 10.890625 -13.96875 C 11.929688 -12.738281 12.453125 -10.742188 12.453125 -7.984375 C 12.453125 -6.117188 12.203125 -4.570312 11.703125 -3.34375 C 11.210938 -2.125 10.53125 -1.222656 9.65625 -0.640625 C 8.789062 -0.0664062 7.769531 0.21875 6.59375 0.21875 Z M 6.59375 -7.09375 C 7.300781 -7.09375 7.914062 -7.226562 8.4375 -7.5 C 8.957031 -7.78125 9.351562 -8.1875 9.625 -8.71875 C 9.90625 -9.25 10.046875 -9.882812 10.046875 -10.625 C 10.046875 -11.363281 9.90625 -12 9.625 -12.53125 C 9.351562 -13.070312 8.957031 -13.484375 8.4375 -13.765625 C 7.914062 -14.046875 7.300781 -14.1875 6.59375 -14.1875 C 5.5625 -14.1875 4.753906 -13.878906 4.171875 -13.265625 C 3.585938 -12.660156 3.296875 -11.78125 3.296875 -10.625 C 3.296875 -9.476562 3.585938 -8.601562 4.171875 -8 C 4.753906 -7.394531 5.5625 -7.09375 6.59375 -7.09375 Z M 6.59375 -7.09375 "/></g></g></g><g fill="#ffffff" fill-opacity="1"><g transform="translate(212.366892, 54.267823)"><g><path d="M 7.1875 -6.796875 L 1.109375 -6.796875 L 1.109375 -8.359375 L 7.1875 -8.359375 Z M 7.1875 -6.796875 "/></g></g></g><g fill="#ffffff" fill-opacity="1"><g transform="translate(220.64819, 54.267823)"><g><path d="M 4.234375 0 L 2.453125 0 L 8.25 -13.828125 L 8.1875 -14.046875 L 0.578125 -14.046875 L 0.578125 -15.609375 L 10.09375 -15.609375 L 10.09375 -13.921875 Z M 4.234375 0 "/></g></g></g><g fill="#ffffff" fill-opacity="1"><g transform="translate(231.426684, 54.267823)"><g><path d="M 6.421875 0.21875 C 4.960938 0.21875 3.796875 -0.101562 2.921875 -0.75 C 2.054688 -1.394531 1.492188 -2.3125 1.234375 -3.5 L 2.578125 -4.125 L 2.828125 -4.078125 C 3.003906 -3.472656 3.234375 -2.976562 3.515625 -2.59375 C 3.804688 -2.207031 4.1875 -1.914062 4.65625 -1.71875 C 5.132812 -1.53125 5.722656 -1.4375 6.421875 -1.4375 C 7.472656 -1.4375 8.289062 -1.75 8.875 -2.375 C 9.46875 -3 9.765625 -3.914062 9.765625 -5.125 C 9.765625 -6.34375 9.472656 -7.269531 8.890625 -7.90625 C 8.316406 -8.550781 7.523438 -8.875 6.515625 -8.875 C 5.734375 -8.875 5.097656 -8.71875 4.609375 -8.40625 C 4.128906 -8.09375 3.707031 -7.609375 3.34375 -6.953125 L 1.875 -7.09375 L 2.171875 -15.609375 L 10.90625 -15.609375 L 10.90625 -14.046875 L 3.765625 -14.046875 L 3.59375 -8.875 L 3.8125 -8.828125 C 4.175781 -9.367188 4.625 -9.769531 5.15625 -10.03125 C 5.6875 -10.300781 6.320312 -10.4375 7.0625 -10.4375 C 8 -10.4375 8.8125 -10.226562 9.5 -9.8125 C 10.195312 -9.394531 10.734375 -8.785156 11.109375 -7.984375 C 11.492188 -7.191406 11.6875 -6.238281 11.6875 -5.125 C 11.6875 -4.007812 11.46875 -3.050781 11.03125 -2.25 C 10.59375 -1.445312 9.976562 -0.832031 9.1875 -0.40625 C 8.394531 0.0078125 7.472656 0.21875 6.421875 0.21875 Z M 6.421875 0.21875 "/></g></g></g><g fill="#ffffff" fill-opacity="1"><g transform="translate(244.339533, 54.267823)"><g><path d="M 7.453125 0.21875 C 6.347656 0.21875 5.359375 -0.0390625 4.484375 -0.5625 C 3.609375 -1.09375 2.90625 -1.957031 2.375 -3.15625 C 1.851562 -4.351562 1.59375 -5.898438 1.59375 -7.796875 C 1.59375 -9.640625 1.851562 -11.160156 2.375 -12.359375 C 2.90625 -13.554688 3.617188 -14.429688 4.515625 -14.984375 C 5.421875 -15.546875 6.457031 -15.828125 7.625 -15.828125 C 9.625 -15.828125 11.097656 -15.21875 12.046875 -14 L 11.140625 -12.796875 L 10.875 -12.796875 C 10.101562 -13.722656 9.019531 -14.1875 7.625 -14.1875 C 6.269531 -14.1875 5.234375 -13.675781 4.515625 -12.65625 C 3.804688 -11.632812 3.453125 -10.003906 3.453125 -7.765625 L 3.6875 -7.703125 C 4.113281 -8.578125 4.664062 -9.234375 5.34375 -9.671875 C 6.03125 -10.117188 6.867188 -10.34375 7.859375 -10.34375 C 8.847656 -10.34375 9.703125 -10.128906 10.421875 -9.703125 C 11.148438 -9.285156 11.707031 -8.679688 12.09375 -7.890625 C 12.476562 -7.097656 12.671875 -6.160156 12.671875 -5.078125 C 12.671875 -3.992188 12.457031 -3.050781 12.03125 -2.25 C 11.601562 -1.457031 10.992188 -0.847656 10.203125 -0.421875 C 9.421875 0.00390625 8.503906 0.21875 7.453125 0.21875 Z M 7.453125 -1.4375 C 8.484375 -1.4375 9.289062 -1.75 9.875 -2.375 C 10.457031 -3 10.75 -3.898438 10.75 -5.078125 C 10.75 -6.265625 10.457031 -7.171875 9.875 -7.796875 C 9.289062 -8.421875 8.484375 -8.734375 7.453125 -8.734375 C 6.742188 -8.734375 6.128906 -8.585938 5.609375 -8.296875 C 5.085938 -8.015625 4.6875 -7.597656 4.40625 -7.046875 C 4.125 -6.503906 3.984375 -5.847656 3.984375 -5.078125 C 3.984375 -4.316406 4.125 -3.660156 4.40625 -3.109375 C 4.6875 -2.566406 5.085938 -2.148438 5.609375 -1.859375 C 6.128906 -1.578125 6.742188 -1.4375 7.453125 -1.4375 Z M 7.453125 -1.4375 "/></g></g></g><g fill="#ffffff" fill-opacity="1"><g transform="translate(258.394261, 54.267823)"><g><path d="M 6.59375 0.21875 C 5.457031 0.21875 4.484375 0.0351562 3.671875 -0.328125 C 2.867188 -0.691406 2.253906 -1.210938 1.828125 -1.890625 C 1.410156 -2.566406 1.203125 -3.367188 1.203125 -4.296875 C 1.203125 -5.285156 1.445312 -6.109375 1.9375 -6.765625 C 2.425781 -7.429688 3.15625 -7.957031 4.125 -8.34375 L 4.125 -8.5625 C 3.445312 -8.96875 2.921875 -9.4375 2.546875 -9.96875 C 2.179688 -10.507812 2 -11.144531 2 -11.875 C 2 -12.675781 2.1875 -13.375 2.5625 -13.96875 C 2.945312 -14.5625 3.484375 -15.019531 4.171875 -15.34375 C 4.867188 -15.664062 5.675781 -15.828125 6.59375 -15.828125 C 7.507812 -15.828125 8.316406 -15.664062 9.015625 -15.34375 C 9.710938 -15.019531 10.25 -14.5625 10.625 -13.96875 C 11.007812 -13.375 11.203125 -12.675781 11.203125 -11.875 C 11.203125 -11.144531 11.015625 -10.507812 10.640625 -9.96875 C 10.273438 -9.4375 9.753906 -8.96875 9.078125 -8.5625 L 9.078125 -8.34375 C 10.046875 -7.957031 10.773438 -7.429688 11.265625 -6.765625 C 11.753906 -6.109375 12 -5.285156 12 -4.296875 C 12 -3.367188 11.785156 -2.566406 11.359375 -1.890625 C 10.941406 -1.210938 10.328125 -0.691406 9.515625 -0.328125 C 8.703125 0.0351562 7.726562 0.21875 6.59375 0.21875 Z M 6.59375 -9.046875 C 7.144531 -9.046875 7.632812 -9.148438 8.0625 -9.359375 C 8.488281 -9.578125 8.816406 -9.878906 9.046875 -10.265625 C 9.285156 -10.660156 9.40625 -11.128906 9.40625 -11.671875 C 9.40625 -12.210938 9.285156 -12.679688 9.046875 -13.078125 C 8.816406 -13.472656 8.488281 -13.773438 8.0625 -13.984375 C 7.632812 -14.203125 7.144531 -14.3125 6.59375 -14.3125 C 5.738281 -14.3125 5.054688 -14.070312 4.546875 -13.59375 C 4.046875 -13.125 3.796875 -12.484375 3.796875 -11.671875 C 3.796875 -10.859375 4.046875 -10.21875 4.546875 -9.75 C 5.054688 -9.28125 5.738281 -9.046875 6.59375 -9.046875 Z M 6.59375 -1.390625 C 7.71875 -1.390625 8.578125 -1.65625 9.171875 -2.1875 C 9.773438 -2.71875 10.078125 -3.460938 10.078125 -4.421875 C 10.078125 -5.367188 9.773438 -6.109375 9.171875 -6.640625 C 8.578125 -7.179688 7.71875 -7.453125 6.59375 -7.453125 C 5.46875 -7.453125 4.601562 -7.179688 4 -6.640625 C 3.40625 -6.109375 3.109375 -5.367188 3.109375 -4.421875 C 3.109375 -3.460938 3.40625 -2.71875 4 -2.1875 C 4.601562 -1.65625 5.46875 -1.390625 6.59375 -1.390625 Z M 6.59375 -1.390625 "/></g></g></g></svg>