<svg xmlns="http://www.w3.org/2000/svg" xmlns:xlink="http://www.w3.org/1999/xlink" width="43" zoomAndPan="magnify" viewBox="0 0 32.25 32.249998" height="43" preserveAspectRatio="xMidYMid meet" version="1.0"><defs><clipPath id="9d83b333d1"><path d="M 0 0 L 31.515625 0 L 31.515625 31.515625 L 0 31.515625 Z M 0 0 " clip-rule="nonzero"/></clipPath></defs><g clip-path="url(#9d83b333d1)"><path fill="#ffffff" d="M 0 0 L 32.25 0 L 32.25 39.578125 L 0 39.578125 Z M 0 0 " fill-opacity="1" fill-rule="nonzero"/><path fill="#ffffff" d="M 0 0 L 31.515625 0 L 31.515625 31.515625 L 0 31.515625 Z M 0 0 " fill-opacity="1" fill-rule="nonzero"/><path fill="#ffffff" d="M 0 0 L 31.515625 0 L 31.515625 31.515625 L 0 31.515625 Z M 0 0 " fill-opacity="1" fill-rule="nonzero"/><path fill="#1a4789" d="M 31.515625 26.722656 C 31.515625 29.371094 29.375 31.511719 26.726562 31.511719 L 4.789062 31.511719 C 2.144531 31.511719 0 29.371094 0 26.722656 L 0 4.785156 C 0 2.140625 2.144531 -0.00390625 4.789062 -0.00390625 L 26.726562 -0.00390625 C 29.371094 -0.00390625 31.515625 2.140625 31.515625 4.785156 Z M 31.515625 26.722656 " fill-opacity="1" fill-rule="nonzero"/></g><path fill="#ffffff" d="M 20.882812 18.203125 L 21.394531 14.253906 L 17.480469 14.253906 L 17.480469 11.730469 C 17.480469 10.585938 17.800781 9.804688 19.441406 9.804688 L 21.53125 9.804688 L 21.53125 6.269531 C 21.167969 6.222656 19.929688 6.113281 18.480469 6.113281 C 15.464844 6.113281 13.398438 7.957031 13.398438 11.339844 L 13.398438 14.253906 L 9.988281 14.253906 L 9.988281 18.203125 L 13.398438 18.203125 L 13.398438 28.34375 L 17.480469 28.34375 L 17.480469 18.203125 Z M 20.882812 18.203125 " fill-opacity="1" fill-rule="nonzero"/></svg>